<svg xmlns="http://www.w3.org/2000/svg" viewBox="0 0 1032.05 1032.05"><defs><style>.cls-1{fill:#fff;}.cls-2{fill:none;stroke:#fff;stroke-miterlimit:10;stroke-width:1.5px;}.cls-3{opacity:0;}.cls-4{fill:#1d1d1b;}</style></defs><g id="Calque_2" data-name="Calque 2"><g id="Calque_4" data-name="Calque 4"><path class="cls-1" d="M783.9,201.12l24.8,24.08c10.73,10.42,10.32,20.17,4.18,26.49a13.74,13.74,0,0,1-16,3.06c3,5.56,3.77,12.77-1.75,18.46-8.17,8.4-19.4,7.07-30.38-3.59l-24.4-23.7ZM759,248.23l12.28,11.93c4.19,4.07,8.56,5.93,12.87,1.49,3.47-3.57,2.83-7.78-1.9-12.38l-12.49-12.13Zm30.44-7.69c4.87,4.72,8.3,4.3,10.93,1.59,3.28-3.38,2-7.25-1.71-10.89L786.7,219.66l-9.13,9.39Z"/><path class="cls-1" d="M833.35,251.58l9.07,12.13-40.3,30.13,20.94,28-10.93,5.68L783.32,289Z"/><path class="cls-1" d="M870.25,370.42c-15.36,8-34.41,4.85-44.88-15.32-9.76-18.8-2.48-36.21,13.71-44.61,15.24-7.91,34.67-3.56,44.42,15.24C893.55,345.09,885.37,362.57,870.25,370.42ZM846.6,324.59c-10.48,5.44-15.93,15-10.32,25.82,5.79,11.17,17.44,10.58,26.45,5.9,9.83-5.09,15.88-14.31,10.06-25.53C867.19,320,856,319.74,846.6,324.59Z"/><path class="cls-1" d="M860.52,446.19l-3.14-10.53a55.65,55.65,0,0,1,5.84-2.79c-5.64-2.44-10.07-6.72-13.43-18-5.78-19.38,4.34-34.17,21.85-39.4s35,2.1,41.37,23.49c5.73,19.22-2.24,30.63-10.47,34.81l-4.37-14.64c2.67-2.08,6.8-7.06,3.87-16.9-3.66-12.26-14-15-25.12-11.66-11.74,3.51-18.86,11.68-15.22,23.88,3,10.13,9.65,13.18,16.79,11l1-.28-4.35-14.58,11.2-3.34L894.83,436Z"/><path class="cls-2" d="M928.25,484l.4,34.57c.18,14.95-7,21.54-15.83,21.64a13.76,13.76,0,0,1-13.44-9.17c-1.8,6.07-6.4,11.68-14.32,11.77-11.72.14-18.7-8.77-18.87-24.07l-.4-34Zm-51,15.52.2,17.12c.07,5.84,1.83,10.26,8,10.19,5-.06,7.52-3.48,7.44-10.08l-.21-17.41Zm26.93,16.17c.08,6.78,2.79,8.92,6.57,8.87,4.71-.05,6.58-3.66,6.52-8.89l-.19-16.61-13.1.15Z"/><path class="cls-2" d="M927.3,554.76l-2.22,15-49.77-7.39L870.17,597l-11.72-3.75,7.06-47.61Z"/><path class="cls-2" d="M869,664.67c-16.49-5.27-27.71-21-20.79-42.62,6.44-20.18,23.92-27.3,41.29-21.75,16.36,5.23,27,22.08,20.53,42.24C903.41,663.32,885.25,669.85,869,664.67Zm15.81-49.09c-11.25-3.59-21.89-.7-25.59,10.89-3.83,12,4.8,19.83,14.48,22.92,10.54,3.37,21.34,1.16,25.19-10.88C902.61,626.93,894.86,618.79,884.83,615.58Z"/><path class="cls-2" d="M808.39,711.19l5.26-9.66a57.4,57.4,0,0,1,6.09,2.18c-2.24-5.72-2.32-11.88,3.3-22.19,9.69-17.76,27.3-21,43.35-12.26s23.17,26.31,12.48,45.91c-9.6,17.61-23.31,20-32.08,17.1l7.31-13.42c3.36.43,9.81-.15,14.72-9.17,6.12-11.22.78-20.47-9.42-26-10.76-5.86-21.58-5.16-27.67,6-5.07,9.28-2.55,16.14,4,19.71l.86.47,7.28-13.36,10.27,5.6-14.3,26.23Z"/><path class="cls-1" d="M829.24,785.88,805,810.53c-10.48,10.66-20.22,10.19-26.5,4a13.73,13.73,0,0,1-3-16c-5.58,3-12.8,3.69-18.45-1.86-8.36-8.22-7-19.45,3.78-30.36l23.85-24.25Zm-47-25.25-12,12.21c-4.1,4.16-6,8.53-1.58,12.86,3.55,3.5,7.77,2.88,12.39-1.82l12.21-12.41Zm7.5,30.5c-4.76,4.83-4.35,8.26-1.66,10.91,3.36,3.3,7.23,2.09,10.91-1.64l11.64-11.84-9.33-9.18Z"/><path class="cls-1" d="M778.48,835l-12.19,9-29.88-40.49-28.13,20.76-5.62-10.95,38.73-28.58Z"/><path class="cls-1" d="M659.37,871.18c-7.88-15.42-4.63-34.45,15.6-44.79,18.86-9.63,36.22-2.25,44.52,14,7.82,15.3,3.34,34.7-15.51,44.33C684.55,894.63,667.12,886.35,659.37,871.18Zm46-23.36c-5.37-10.52-14.91-16-25.75-10.49-11.2,5.72-10.69,17.37-6.07,26.42,5,9.85,14.22,16,25.47,10.21C709.82,868.43,710.13,857.19,705.34,847.82Z"/><path class="cls-1" d="M583.68,861l10.55-3.08a54,54,0,0,1,2.75,5.86c2.48-5.62,6.79-10,18.06-13.31,19.43-5.66,34.15,4.54,39.27,22.09s-2.32,35-23.76,41.22c-19.25,5.61-30.6-2.43-34.74-10.69l14.67-4.28c2.06,2.69,7,6.85,16.88,4,12.28-3.58,15.06-13.89,11.81-25-3.43-11.77-11.56-18.94-23.78-15.38-10.15,3-13.24,9.58-11.16,16.73l.28,1,14.61-4.26L622.39,887l-28.69,8.36Z"/><path class="cls-2" d="M545.41,928.43l-34.57.19c-14.94.08-21.49-7.16-21.53-16a13.76,13.76,0,0,1,9.25-13.38c-6.05-1.84-11.64-6.47-11.68-14.39-.07-11.72,8.89-18.64,24.19-18.72l34-.18Zm-15.2-51.09-17.12.09c-5.84,0-10.26,1.76-10.23,7.94,0,5,3.43,7.54,10,7.51l17.41-.09Zm-16.33,26.81c-6.79,0-8.94,2.74-8.92,6.52,0,4.71,3.62,6.6,8.86,6.58l16.61-.09-.07-13.1Z"/><path class="cls-2" d="M474.72,927l-15-2.31L467.44,875l-34.56-5.35L436.7,858l47.56,7.35Z"/><path class="cls-2" d="M365.18,868.09c5.37-16.46,21.14-27.58,42.74-20.53,20.14,6.57,27.15,24.09,21.49,41.42-5.33,16.34-22.24,26.84-42.36,20.27C366.31,902.48,359.89,884.28,365.18,868.09Zm49,16.11c3.67-11.23.85-21.88-10.73-25.66-11.95-3.9-19.86,4.68-23,14.34-3.43,10.52-1.29,21.34,10.73,25.26C402.71,901.91,410.89,894.21,414.16,884.2Z"/><path class="cls-2" d="M319,807.16l9.61,5.32a53.41,53.41,0,0,1-2.21,6.08c5.73-2.2,11.89-2.24,22.17,3.44,17.7,9.8,20.83,27.43,12,43.43s-26.44,23-46,12.18c-17.55-9.7-19.84-23.43-16.89-32.18l13.36,7.39c-.45,3.36.09,9.81,9.08,14.78,11.19,6.19,20.46.91,26.09-9.26,5.93-10.72,5.3-21.54-5.85-27.71-9.25-5.12-16.12-2.65-19.72,3.87l-.48.86,13.31,7.37L327.85,853,301.7,838.49Z"/><path class="cls-1" d="M244.22,827.55l-24.49-24.4c-10.59-10.55-10.07-20.29-3.85-26.53a13.73,13.73,0,0,1,16-2.86c-3-5.6-3.61-12.83,2-18.44,8.27-8.3,19.49-6.83,30.33,4l24.1,24Zm-5-39.49c-4.81-4.79-8.24-4.41-10.91-1.73-3.32,3.34-2.14,7.22,1.57,10.92L241.66,809l9.24-9.28Zm30.54-7.31-12.14-12.08c-4.13-4.12-8.48-6-12.85-1.66-3.51,3.54-2.93,7.75,1.75,12.4l12.33,12.29Z"/><path class="cls-1" d="M195.38,776.43l-8.91-12.25,40.67-29.61L206.56,706.3l11-5.54,28.32,38.91Z"/><path class="cls-1" d="M160,657.17c15.46-7.78,34.47-4.42,44.68,15.87,9.52,18.93,2,36.24-14.26,44.44-15.35,7.72-34.72,3.12-44.23-15.79C136.38,682.2,144.78,664.82,160,657.17Zm23.06,46.12c10.56-5.31,16.13-14.82,10.66-25.69-5.66-11.24-17.31-10.8-26.38-6.24-9.89,5-16.06,14.12-10.37,25.41C162.43,707.63,173.66,708,183.06,703.29Z"/><path class="cls-1" d="M170.66,581.49l3,10.58a55.05,55.05,0,0,1-5.87,2.71c5.61,2.51,10,6.85,13.19,18.15,5.55,19.46-4.76,34.11-22.34,39.12s-34.95-2.54-41.06-24c-5.49-19.29,2.62-30.6,10.91-34.68l4.18,14.7c-2.7,2-6.89,7-4.08,16.85,3.5,12.3,13.79,15.15,25,12,11.79-3.36,19-11.44,15.53-23.68-2.9-10.17-9.49-13.31-16.65-11.27l-1,.27,4.17,14.64L144.41,620l-8.19-28.74Z"/><path class="cls-2" d="M103.43,542.8l0-34.57c0-15,7.3-21.44,16.11-21.43a13.72,13.72,0,0,1,13.32,9.34c1.88-6.05,6.55-11.6,14.47-11.6,11.72,0,18.58,9,18.57,24.32l0,34Zm24.48-31.38c0-6.78-2.68-8.95-6.46-8.95-4.71,0-6.63,3.57-6.63,8.81l0,16.61h13.1Zm26.72,16.51,0-17.12c0-5.84-1.71-10.28-7.89-10.28-5,0-7.56,3.38-7.57,10v17.41Z"/><path class="cls-2" d="M105.28,472.1l2.41-15,49.67,8,5.57-34.52,11.67,3.89L166.94,482Z"/><path class="cls-2" d="M164.92,363c16.42,5.48,27.44,21.32,20.26,42.87-6.7,20.1-24.26,27-41.56,21.23-16.3-5.43-26.7-22.4-20-42.49C130.52,363.87,148.76,357.57,164.92,363ZM148.5,411.83c11.2,3.74,21.87,1,25.72-10.57,4-11.93-4.56-19.88-14.19-23.09-10.5-3.5-21.33-1.43-25.33,10.57C130.86,400.27,138.51,408.5,148.5,411.83Z"/><path class="cls-2" d="M226.12,317.21l-5.38,9.59a53.59,53.59,0,0,1-6.06-2.26c2.16,5.75,2.17,11.91-3.58,22.15-9.91,17.65-27.57,20.66-43.5,11.72s-22.83-26.6-11.9-46.07c9.82-17.48,23.55-19.69,32.29-16.68L180.51,309c-3.35-.47-9.81,0-14.84,9-6.26,11.15-1,20.46,9.1,26.15,10.69,6,21.51,5.43,27.75-5.67,5.17-9.22,2.75-16.11-3.75-19.76l-.86-.48-7.45,13.27-10.19-5.73,14.63-26.06Z"/><path class="cls-1" d="M206.24,242.24l24.55-24.35c10.61-10.52,20.35-9.94,26.56-3.68a13.77,13.77,0,0,1,2.76,16c5.61-2.92,12.84-3.53,18.42,2.1,8.25,8.32,6.71,19.53-4.16,30.31l-24.15,23.94Zm39.51-4.75c4.82-4.78,4.47-8.21,1.8-10.9-3.31-3.34-7.2-2.18-10.92,1.51l-11.8,11.69,9.22,9.3Zm7.13,30.58L265,256c4.15-4.11,6.09-8.45,1.74-12.84-3.51-3.54-7.73-3-12.41,1.66L242,257.1Z"/><path class="cls-1" d="M257.6,193.78l12.3-8.84,29.37,40.86,28.39-20.41,5.47,11L294.06,244.5Z"/><path class="cls-1" d="M377.14,159.1c7.69,15.51,4.21,34.49-16.15,44.58-19,9.4-36.25,1.8-44.34-14.54-7.63-15.39-2.91-34.73,16.06-44.13C352.25,135.33,369.58,143.83,377.14,159.1Zm-46.26,22.78c5.25,10.58,14.72,16.21,25.62,10.81,11.27-5.58,10.91-17.24,6.4-26.34-4.91-9.92-14-16.14-25.34-10.53C326.66,161.22,326.21,172.44,330.88,181.88Z"/><path class="cls-1" d="M452.71,170.27l-10.59,2.94a53.36,53.36,0,0,1-2.67-5.89c-2.56,5.59-6.92,9.93-18.24,13.08-19.49,5.42-34.09-5-39-22.59s2.76-34.94,24.27-40.92c19.33-5.37,30.58,2.82,34.61,11.13l-14.72,4.09c-2-2.71-6.94-6.93-16.83-4.19-12.32,3.43-15.24,13.7-12.13,24.89,3.28,11.81,11.32,19.09,23.59,15.68,10.19-2.83,13.36-9.41,11.37-16.58l-.27-1L417.46,155l-3.13-11.27,28.8-8Z"/><path class="cls-2" d="M491.85,103.27l34.57.26c14.94.11,21.39,7.43,21.33,16.24A13.75,13.75,0,0,1,538.32,133c6,1.92,11.56,6.62,11.5,14.54-.08,11.72-9.12,18.53-24.43,18.42l-34-.25Zm14.54,51.3,17.13.12c5.83.05,10.28-1.64,10.33-7.82,0-5-3.34-7.58-9.93-7.63l-17.41-.13ZM523.07,128c6.78,0,9-2.63,9-6.41,0-4.71-3.53-6.65-8.76-6.69l-16.61-.12-.1,13.09Z"/><path class="cls-2" d="M562.49,105.56l14.94,2.51-8.32,49.62,34.49,5.78-4,11.65-47.47-8Z"/><path class="cls-2" d="M671.33,165.9c-5.58,16.38-21.5,27.31-43,20-20.05-6.82-26.84-24.43-21-41.69,5.54-16.26,22.57-26.55,42.62-19.73C670.63,131.49,676.82,149.77,671.33,165.9Zm-48.78-16.74C618.74,160.34,621.43,171,633,175c11.91,4,19.92-4.43,23.19-14.05,3.57-10.47,1.56-21.32-10.41-25.39C634.22,131.6,625.94,139.2,622.55,149.16Z"/><path class="cls-2" d="M716.67,227.4,707.12,222a56.06,56.06,0,0,1,2.3-6c-5.77,2.12-11.92,2.09-22.13-3.73-17.58-10-20.49-27.7-11.43-43.58S702.6,145.94,722,157c17.42,9.93,19.54,23.68,16.48,32.4l-13.27-7.57c.49-3.35,0-9.81-8.89-14.89-11.11-6.33-20.46-1.17-26.21,8.93-6.07,10.65-5.57,21.48,5.49,27.78,9.19,5.24,16.1,2.86,19.78-3.61l.49-.86-13.22-7.54,5.79-10.15,26,14.79Z"/><g class="cls-3"><path class="cls-4" d="M516,.5A515.66,515.66,0,0,1,716.69,991,515.66,515.66,0,0,1,315.36,41,512.3,512.3,0,0,1,516,.5m0-.5C231,0,0,231,0,516s231,516,516,516,516-231,516-516S801,0,516,0Z"/></g></g></g></svg>