<svg xmlns="http://www.w3.org/2000/svg" viewBox="0 0 1032.05 1032.05"><defs><style>.cls-1{fill:#fff;}.cls-2{fill:none;stroke:#fff;stroke-miterlimit:10;stroke-width:1.5px;}.cls-3{opacity:0;}.cls-4{fill:#1d1d1b;}</style></defs><g id="Calque_2" data-name="Calque 2"><g id="Calque_4" data-name="Calque 4"><path class="cls-1" d="M769.58,230.82,755.7,245.63,746.46,237l36-38.44,20.93,19.62c8.87,8.3,9.84,17.43,3.65,24-4.65,5-10.27,5.18-15.21,2.82,1,2.1,3.7,7.48-2.77,14.38l-1.8,1.92c-2.47,2.64-5.29,5.55-6.46,7.87l-9.57-9c.94-2.29,3-4.63,6.82-8.71l1.18-1.27c3.64-3.88,3.74-6.84-1.87-12.09Zm6.56-7,9.61,9c4.53,4.25,8,4.45,11.06,1.21,2.85-3,2.45-6.64-1.95-10.77l-9.69-9.08Z"/><path class="cls-1" d="M827.1,290.94l-18.54-22.83-9.31,7.56,20.61,25.38L811,306.37,783.24,272.2,824.15,239l27.59,34-8,6.45-19.53-24.06-7.75,6.29,18.54,22.83Zm35.8-28.5-18.42-6.19-7.36-9.07,16,3.17Z"/><path class="cls-1" d="M830.05,314.22l-12.62,2.18-6.75-11.29,56.12-8.8,8.41,14.07-33.79,46.17-7.09-11.87,7.75-10.33ZM849,326c7.86-10.4,11.91-15.61,14.72-18.75l0-.07c-4,1-12.3,2.72-23.17,4.6Z"/><path class="cls-1" d="M888.79,335.4l5.07,11.73L854.9,364,866.59,391l-10.07,2.52-16.1-37.26Z"/><path class="cls-1" d="M910.54,390.8l-49.95,16.75-4.07-12.12,50-16.76Z"/><path class="cls-1" d="M880.26,417.89c-4.09,2.51-6.18,6.72-4.2,15.24,1.85,8,4.82,9.72,8.13,8.95,3.54-.82,5-3.65,4.31-14.89-1.09-18.51,3.94-23.09,10.83-24.69,10.24-2.38,17.77,6.27,20.59,18.4,4.09,17.61-3.86,24.5-9.69,26.46l-2.89-12.47c2.37-1.31,5.38-3.81,3.41-12.28-1.38-5.93-4-8.5-7.28-7.73-3,.69-4,3.15-3.46,13.19,1,20.31-4.15,24.72-11.59,26.45-8.89,2.07-17.7-3.24-21.7-20.46-3.73-16.05,1.76-24.94,10.64-28.64Z"/><path class="cls-1" d="M886.8,472l-12.31-3.57-1.12-13.1L927.67,472l1.39,16.33L878.47,515l-1.17-13.78,11.49-5.89Zm11.9,18.92c11.61-5.91,17.54-8.81,21.44-10.41v-.08c-4-.84-12.24-2.94-22.84-6Z"/><path class="cls-1" d="M919.73,521.92l.58-18.53,10.18.31-1.57,49.79-10.17-.32.58-18.46-42.48-1.34.4-12.79Z"/><path class="cls-1" d="M926.11,571.88l-52.29-6.36,1.54-12.69,52.3,6.36Z"/><path class="cls-1" d="M887.91,630.42c-14.28-3.06-25-15.32-21-34.06,3.75-17.47,17.83-24.89,32.87-21.66,14.17,3,24.46,16.3,20.71,33.77C916.67,626.45,902,633.44,887.91,630.42Zm9.22-42.51c-9.74-2.09-18.43,1.21-20.58,11.25-2.23,10.38,5.67,16.25,14,18.05,9.13,2,18-.79,20.25-11.21C913,596,905.82,589.78,897.13,587.91Z"/><path class="cls-1" d="M860.49,627.42,909.38,647l-5.63,14.05c-26.48,5.33-36.31,7.75-43.35,8.48l0,.14c5.32,1.58,14.44,5.33,22.49,8.55l12.08,4.85L890.56,694l-48.9-19.62,5.28-13.17c9.13-1.68,39.71-7.58,46.47-8.25l.05-.14c-6.2-2-13.15-4.8-21.83-8.28l-15.5-6.22Z"/><path class="cls-1" d="M848.4,694.45c-4.69-1-9.1.66-13.51,8.21-4.12,7.07-3.16,10.38-.22,12.09,3.13,1.83,6.12.76,13.35-7.88,11.91-14.21,18.71-14.09,24.81-10.53,9.09,5.3,8.63,16.75,2.36,27.51-9.11,15.62-19.61,15.17-25.2,12.61l6.45-11.06c2.62.67,6.53.91,10.9-6.59,3.07-5.26,2.95-8.91,0-10.62-2.63-1.53-5-.43-11.56,7.22-13.19,15.48-20,15.14-26.58,11.29-7.89-4.6-10.65-14.51-1.75-29.77,8.3-14.23,18.39-16.94,27.39-13.54Z"/><path class="cls-2" d="M803,767.64,788,753.86l8.58-9.3,38.7,35.77L815.84,801.4c-8.24,8.92-17.37,10-24,3.81-5-4.62-5.25-10.24-2.93-15.19-2.09,1-7.44,3.75-14.4-2.67l-1.93-1.79c-2.65-2.45-5.58-5.25-7.91-6.41l8.91-9.63c2.3.92,4.66,3,8.77,6.76l1.27,1.17c3.91,3.62,6.87,3.69,12.08-2Zm7,6.51-9,9.67c-4.21,4.56-4.39,8.06-1.13,11.07,3.06,2.83,6.66,2.41,10.76-2l9-9.76Z"/><path class="cls-2" d="M743.24,825.54l22.69-18.69-7.62-9.25-25.24,20.78-5.37-8.84,34-28,33.49,40.67-33.79,27.82-6.51-7.9,23.92-19.7-6.34-7.7-22.7,18.69ZM772,861.14l6.07-18.46,9-7.42-3.06,16Z"/><path class="cls-2" d="M719.94,828.68l-2.27-12.61,11.25-6.82,9.18,56-14,8.5-46.39-33.47,11.82-7.17,10.39,7.68Zm-11.67,19.07c10.45,7.78,15.68,11.8,18.85,14.59l.06,0c-1-4-2.8-12.28-4.75-23.14Z"/><path class="cls-2" d="M699.2,887.54l-11.69,5.15-17.1-38.84-27,11.88-2.59-10.06L678,839.32Z"/><path class="cls-2" d="M644,909.66l-17.1-49.84L639,855.67l17.1,49.84Z"/><path class="cls-2" d="M616.67,879.57c-2.53-4.07-6.76-6.13-15.27-4.09-8,1.91-9.68,4.89-8.89,8.2.85,3.53,3.68,5,14.92,4.2,18.51-1.22,23.12,3.78,24.77,10.65,2.45,10.23-6.15,17.82-18.26,20.72-17.58,4.22-24.52-3.68-26.53-9.5l12.45-3c1.33,2.36,3.85,5.35,12.3,3.33,5.93-1.42,8.48-4,7.69-7.34-.71-3-3.18-3.94-13.21-3.36-20.31,1.17-24.76-4-26.54-11.41-2.13-8.88,3.12-17.73,20.3-21.84,16-3.84,25,1.58,28.73,10.43Z"/><path class="cls-2" d="M562.63,886.48l3.48-12.33,13.09-1.21-16.27,54.42-16.33,1.51-27.06-50.41,13.76-1.27,6,11.45Zm-18.85,12c6,11.57,8.94,17.48,10.57,21.37h.08c.81-4,2.85-12.26,5.85-22.89Z"/><path class="cls-2" d="M512.93,919.76l18.53.45-.24,10.18-49.8-1.21.25-10.18,18.47.45,1-42.49,12.79.32Z"/><path class="cls-2" d="M463,926.49l6-52.34,12.7,1.46-6,52.34Z"/><path class="cls-2" d="M403.8,888.4c3.06-14.28,15.32-25,34.06-21,17.47,3.75,24.89,17.83,21.66,32.87-3,14.17-16.3,24.46-33.77,20.72C407.77,917.16,400.78,902.45,403.8,888.4Zm42.51,9.22c2.09-9.74-1.21-18.42-11.25-20.58-10.38-2.22-16.25,5.67-18.05,14-2,9.13.79,18,11.21,20.25C438.25,913.49,444.44,906.31,446.31,897.62Z"/><path class="cls-2" d="M407,861.24l-19.28,49-14.09-5.54c-5.51-26.44-8-36.25-8.78-43.29l-.14-.05c-1.54,5.33-5.22,14.48-8.39,22.55l-4.76,12.11-10.91-4.29,19.29-49,13.2,5.2c1.75,9.12,7.86,39.65,8.57,46.4l.14.06c2-6.22,4.71-13.19,8.14-21.9L396.1,857Z"/><path class="cls-2" d="M339.9,849.62c1-4.69-.72-9.1-8.3-13.45-7.1-4.08-10.4-3.09-12.09-.14-1.81,3.15-.73,6.13,8,13.29,14.29,11.82,14.22,18.62,10.7,24.75-5.24,9.12-16.7,8.74-27.5,2.54-15.68-9-15.3-19.51-12.78-25.11L309,857.87c-.66,2.63-.87,6.54,6.66,10.86,5.28,3,8.93,2.89,10.62-.06,1.52-2.64.4-5-7.3-11.51-15.57-13.08-15.27-19.88-11.47-26.51,4.55-7.92,14.43-10.75,29.76-1.95C351.57,836.9,354.35,847,351,856Z"/><path class="cls-1" d="M266.39,804.67l13.68-15,9.35,8.52-35.5,38.93-21.2-19.33c-9-8.18-10.07-17.3-4-24,4.58-5,10.2-5.32,15.17-3-1-2.08-3.8-7.42,2.57-14.41l1.77-2c2.44-2.67,5.22-5.62,6.36-7.95l9.69,8.84c-.91,2.31-2.93,4.68-6.7,8.81l-1.16,1.28c-3.59,3.93-3.64,6.89,2,12.07Zm-6.46,7.09-9.73-8.88c-4.59-4.18-8.09-4.34-11.08-1.06-2.8,3.08-2.36,6.68,2.1,10.74l9.81,9Z"/><path class="cls-1" d="M172.68,774.38l18.5,5.93,7.49,9-16-2.94Zm35.4-29L226.93,768l9.21-7.69-21-25.09,8.8-5.43,28.21,33.77-40.44,33.77-28.06-33.6,7.86-6.56,19.86,23.79,7.66-6.4L200.23,752Z"/><path class="cls-1" d="M204.79,722.11l12.59-2.36,6.9,11.2-56,9.56-8.6-14,33.15-46.62,7.25,11.77-7.61,10.44Zm-19.15-11.55c-7.71,10.51-11.69,15.77-14.46,19l0,.07c4-1.07,12.26-2.88,23.11-4.92Z"/><path class="cls-1" d="M145.79,701.78l-5.22-11.66,38.71-17.36-12.06-26.92,10-2.66,16.61,37Z"/><path class="cls-1" d="M123.27,646.66,173,629.22l4.23,12.07L127.5,658.73Z"/><path class="cls-1" d="M153.18,619.18c4.06-2.56,6.09-6.81,4-15.3-2-8-5-9.65-8.26-8.84-3.52.87-4.93,3.72-4.1,15,1.35,18.5-3.62,23.15-10.48,24.85-10.21,2.52-17.86-6-20.85-18.12-4.33-17.56,3.52-24.55,9.32-26.6l3.07,12.43c-2.36,1.35-5.33,3.89-3.24,12.33,1.45,5.91,4.08,8.45,7.38,7.63,3-.73,3.92-3.2,3.28-13.23-1.31-20.3,3.8-24.79,11.22-26.62,8.87-2.19,17.75,3,22,20.16,3.95,16-1.41,25-10.24,28.79Z"/><path class="cls-1" d="M145.9,565.19l12.35,3.39,1.3,13.08L105,565.76l-1.62-16.31L153.62,522,155,535.8l-11.42,6.05Zm-12.17-18.77c-11.53,6.08-17.42,9.06-21.3,10.72v.07c4,.79,12.29,2.78,22.93,5.7Z"/><path class="cls-1" d="M112.26,515.67l-.32,18.54L101.76,534l.87-49.82,10.18.18-.32,18.48,42.5.74-.23,12.8Z"/><path class="cls-1" d="M105.2,465.79l52.38,5.65-1.37,12.71-52.38-5.65Z"/><path class="cls-1" d="M143.09,406.32c14.28,3.07,25,15.33,21,34.06-3.75,17.47-17.83,24.89-32.87,21.66-14.17-3-24.46-16.3-20.71-33.76C114.33,410.29,129,403.31,143.09,406.32Zm-9.22,42.51c9.74,2.09,18.43-1.21,20.58-11.25,2.23-10.37-5.67-16.25-14-18-9.13-2-18,.78-20.25,11.21C118,440.78,125.18,447,133.87,448.83Z"/><path class="cls-1" d="M170.07,409.38l-49.16-18.94,5.44-14.13c26.4-5.69,36.19-8.25,43.22-9.08l.06-.14c-5.35-1.51-14.52-5.12-22.61-8.24l-12.15-4.67,4.21-10.93,49.17,18.93-5.1,13.25c-9.11,1.81-39.61,8.13-46.35,8.89l-.05.14c6.22,1.93,13.21,4.62,21.95,8l15.58,6Z"/><path class="cls-1" d="M181.23,342.18c4.7.92,9.09-.78,13.39-8.39,4-7.13,3-10.42.06-12.09-3.16-1.79-6.14-.68-13.24,8.06-11.71,14.38-18.52,14.35-24.67,10.88-9.16-5.18-8.86-16.64-2.74-27.48,8.9-15.75,19.4-15.45,25-13l-6.3,11.15c-2.64-.63-6.54-.83-10.81,6.74-3,5.3-2.83,8.94.13,10.62,2.65,1.5,5.06.36,11.46-7.38,13-15.66,19.78-15.42,26.43-11.66,7.95,4.49,10.85,14.36,2.16,29.74-8.1,14.35-18.15,17.2-27.2,13.93Z"/><path class="cls-2" d="M225.66,268.39,240.76,282l-8.46,9.41-39.19-35.23,19.19-21.33c8.12-9,17.23-10.2,24-4.14,5.06,4.54,5.4,10.16,3.14,15.14,2.07-1,7.4-3.85,14.43,2.48l2,1.75c2.69,2.42,5.66,5.18,8,6.3L255,266.1c-2.31-.9-4.7-2.9-8.86-6.64l-1.28-1.16c-4-3.55-6.92-3.59-12.05,2.12ZM218.53,262l8.81-9.79c4.14-4.62,4.28-8.12,1-11.09-3.1-2.78-6.7-2.31-10.73,2.17l-8.88,9.89Z"/><path class="cls-2" d="M284.59,209.64l-22.44,19,7.75,9.15,25-21.13,5.49,8.77-33.59,28.44-34-40.22,33.42-28.28,6.61,7.81-23.65,20,6.44,7.61,22.45-19Zm-29.23-35.21L249.55,193l-8.91,7.54,2.83-16Z"/><path class="cls-2" d="M307.82,206.2l2.44,12.58-11.15,7-9.95-55.92,13.9-8.69L349.91,194l-11.72,7.33-10.49-7.54ZM319.23,187c-10.56-7.64-15.84-11.59-19.05-14.34l-.06,0c1.09,4,3,12.25,5.07,23.08Z"/><path class="cls-2" d="M327.77,147.06l11.63-5.31L357,180.35l26.83-12.25,2.73,10L349.65,195Z"/><path class="cls-2" d="M382.7,124.18l17.77,49.6-12,4.31-17.77-49.6Z"/><path class="cls-2" d="M410.4,153.9c2.58,4,6.85,6,15.32,3.88,7.94-2,9.62-5,8.78-8.32-.9-3.52-3.75-4.9-15-4-18.49,1.47-23.18-3.46-24.92-10.31-2.59-10.2,5.9-17.91,18-21,17.52-4.46,24.57,3.34,26.66,9.13l-12.41,3.15c-1.36-2.34-3.92-5.3-12.35-3.16-5.9,1.5-8.41,4.14-7.57,7.44.75,2.95,3.23,3.9,13.25,3.19,20.28-1.45,24.81,3.63,26.69,11,2.25,8.85-2.88,17.76-20,22.11-16,4.07-25-1.23-28.87-10Z"/><path class="cls-2" d="M464.34,146.24,461,158.61,448,160l15.52-54.64,16.31-1.73,27.75,50-13.75,1.47-6.13-11.37ZM483,133.94c-6.15-11.48-9.18-17.35-10.86-21.22h-.07c-.76,4-2.69,12.31-5.54,23Z"/><path class="cls-2" d="M513.59,112.27l-18.54-.19.1-10.18,49.81.53-.11,10.17-18.47-.19-.45,42.5-12.79-.14Z"/><path class="cls-2" d="M563.42,104.85l-5.28,52.43L545.42,156l5.28-52.42Z"/><path class="cls-2" d="M623.24,142.42c-3,14.29-15.2,25.06-34,21.13-17.48-3.66-25-17.71-21.82-32.76,3-14.18,16.19-24.54,33.66-20.88C619.13,113.68,626.18,128.35,623.24,142.42Zm-42.55-9c-2,9.75,1.3,18.42,11.35,20.53,10.38,2.17,16.22-5.75,18-14.13,1.92-9.13-.87-18-11.31-20.19C588.66,117.5,582.51,124.71,580.69,133.4Z"/><path class="cls-2" d="M620.29,169.34l18.6-49.29,14.17,5.35c5.87,26.36,8.49,36.14,9.37,43.16l.14.06c1.47-5.36,5-14.56,8.09-22.67l4.59-12.18,11,4.14-18.6,49.29-13.28-5c-1.88-9.09-8.4-39.55-9.21-46.29l-.14-.05c-1.89,6.24-4.53,13.25-7.83,22l-5.9,15.62Z"/><path class="cls-2" d="M687.58,180.05c-.89,4.71.84,9.09,8.48,13.34,7.16,4,10.44,2.94,12.1,0,1.76-3.18.63-6.14-8.16-13.18-14.46-11.62-14.48-18.42-11-24.6,5.12-9.2,16.58-9,27.47-2.93,15.81,8.79,15.58,19.3,13.13,24.94l-11.2-6.22c.62-2.64.79-6.55-6.81-10.77-5.33-3-9-2.76-10.62.21-1.48,2.66-.33,5.06,7.46,11.41,15.75,12.87,15.55,19.67,11.84,26.35-4.44,8-14.29,11-29.73,2.37-14.41-8-17.32-18.05-14.11-27.12Z"/><g class="cls-3"><path class="cls-4" d="M516,.5A515.66,515.66,0,0,1,716.69,991,515.66,515.66,0,0,1,315.36,41,512.34,512.34,0,0,1,516,.5m0-.5C231,0,0,231,0,516s231,516,516,516,516-231,516-516S801,0,516,0Z"/></g></g></g></svg>