<svg xmlns="http://www.w3.org/2000/svg" viewBox="0 0 44 44"><path d="M27 27h-4v4h4v-4Zm0-7h-4v4h4v-4Zm-6 0h-4v4h4v-4Zm6 14h-4v4h4v-4Zm6-7h-4v4h4v-4Zm6-7h-4v4h4v-4Zm0 7h-4v4h4v-4Zm-6-7h-4v4h4v-4Zm7-16h-4V1c0-.55-.45-1-1-1s-1 .45-1 1v3H10V1c0-.55-.45-1-1-1S8 .45 8 1v3H4C1.79 4 0 5.79 0 8v32c0 2.21 1.79 4 4 4h36c2.21 0 4-1.79 4-4V8c0-2.21-1.79-4-4-4Zm2 36c0 1.1-.9 2-2 2H4c-1.1 0-2-.9-2-2V16h40v24Zm0-26H2V8c0-1.11.9-2 2-2h4v3c0 .55.45 1 1 1s1-.45 1-1V6h24v3c0 .55.45 1 1 1s1-.45 1-1V6h4c1.1 0 2 .9 2 2v6ZM9 20H5v4h4v-4Zm0 7H5v4h4v-4Zm12 0h-4v4h4v-4Zm-6 7h-4v4h4v-4Zm-6 0H5v4h4v-4Zm12 0h-4v4h4v-4Zm-6-7h-4v4h4v-4Zm0-7h-4v4h4v-4Z" style="fill:#fff"/></svg>