<svg xmlns="http://www.w3.org/2000/svg" viewBox="0 0 44 44"><path d="M42 2H24c0-1.1-.9-2-2-2s-2 .9-2 2H2C.9 2 0 2.9 0 4v2c0 1.11.9 2 2 2v24c0 1.11.9 2 2 2h17v2.59l-5.71 5.71c-.18.18-.29.43-.29.71 0 .55.45 1 1 1 .28 0 .53-.11.71-.29L22 38.43l5.29 5.29c.18.18.43.29.71.29.55 0 1-.45 1-1 0-.28-.11-.53-.29-.71L23 36.59V34h17c1.1 0 2-.89 2-2V8c1.1 0 2-.89 2-2V4c0-1.1-.9-2-2-2Zm-2 30H4V8h36v24Zm2-26H2V4h40v2ZM9 28h26c.55 0 1-.45 1-1 0-.22-.09-.42-.21-.59h.01l-6-8.01h-.01c-.18-.23-.46-.4-.79-.4-.28 0-.53.11-.71.29L25 21.58l-7.29-7.29c-.18-.18-.43-.29-.71-.29-.35 0-.64.19-.82.46h-.02l-8 11.99h.02c-.11.17-.18.35-.18.55 0 .55.45 1 1 1Zm8.16-11.43 7.14 7.14c.18.18.43.29.71.29s.53-.11.71-.29l3.18-3.18 4.11 5.48H10.87l6.29-9.43ZM33 16c1.66 0 3-1.34 3-3s-1.34-3-3-3-3 1.34-3 3 1.34 3 3 3Zm0-4c.55 0 1 .45 1 1s-.45 1-1 1-1-.45-1-1 .45-1 1-1Z" style="fill:#fff"/></svg>