<svg xmlns="http://www.w3.org/2000/svg" viewBox="0 0 44 44"><path d="M11 16c2.76 0 5-2.24 5-5s-2.24-5-5-5-5 2.24-5 5 2.24 5 5 5Zm0-8c1.66 0 3 1.34 3 3s-1.34 3-3 3-3-1.34-3-3 1.34-3 3-3Zm29-8H4C1.79 0 0 1.79 0 4v36c0 2.21 1.79 4 4 4h36c2.21 0 4-1.79 4-4V4c0-2.21-1.79-4-4-4Zm2 40c0 1.11-.9 2-2 2H4c-1.1 0-2-.9-2-2V4c0-1.1.9-2 2-2h36c1.1 0 2 .9 2 2v36Zm-4.07-3.37c-.05-.14-.14-.25-.24-.35l-8.76-12.65c-.15-.37-.5-.63-.93-.63-.28 0-.53.11-.71.29l-4.15 4.15-5.22-7.83c-.15-.36-.51-.62-.92-.62-.35 0-.64.19-.82.46h-.02l-9.99 17h.02c-.11.17-.18.35-.18.56 0 .55.45 1 1 1h30c.55 0 1-.45 1-1 0-.13-.03-.26-.07-.37ZM8.75 36l8.32-14.14 5.02 7.52c.05.12.12.23.21.32.18.19.43.3.71.3s.53-.11.71-.29l4.17-4.17L35.13 36H8.75Z" style="fill:#fff"/></svg>