<svg xmlns="http://www.w3.org/2000/svg" viewBox="0 0 44 44"><path d="m9.71 29.71 1-1c.18-.18.29-.43.29-.71 0-.55-.45-1-1-1-.28 0-.53.11-.71.29l-1 1c-.18.18-.29.43-.29.71 0 .55.45 1 1 1 .28 0 .53-.11.71-.29ZM16 29c0-.55-.45-1-1-1-.28 0-.53.11-.71.29l-10 10c-.18.18-.29.43-.29.71 0 .55.45 1 1 1 .28 0 .53-.11.71-.29l10-10c.18-.18.29-.43.29-.71ZM44 1c0-.55-.45-1-1-1-.15 0-.3.04-.43.1L.62 18.08l-.04.02c-.34.17-.57.5-.57.9 0 .45.31.82.72.94v.02l16.52 6.8 6.8 16.52h.02c.12.41.49.72.94.72.4 0 .74-.24.9-.57l.02-.03L43.9 1.43h-.01c.06-.13.11-.28.11-.43ZM3.57 18.98 38.62 3.96 17.76 24.83 3.57 18.98Zm21.44 21.44-5.84-14.19L40.04 5.38 25.02 40.43Zm-9.02-7.43c-.28 0-.53.11-.71.29l-3 3c-.18.18-.29.43-.29.71 0 .55.45 1 1 1 .28 0 .53-.11.71-.29l3-3c.18-.18.29-.43.29-.71 0-.55-.45-1-1-1Z" style="fill:#fff"/></svg>