<svg xmlns="http://www.w3.org/2000/svg" viewBox="0 0 44 40"><path d="M40 14V3c0-1.66-1.34-3-3-3s-3 1.34-3 3v.82L4.91 13.23C4.64 13.09 4.33 13 4 13H2c-1.1 0-2 .9-2 2v10c0 1.11.9 2 2 2h2c.33 0 .64-.09.91-.23l4.7 1.52-.39 1.23c-.67 2.11.49 4.36 2.6 5.03l10.48 3.34c2.11.67 4.35-.49 5.03-2.6l.36-1.14L34 36.19v.82c0 1.66 1.34 3 3 3s3-1.34 3-3v-11c2.21 0 4-1.79 4-4v-4c0-2.21-1.79-4-4-4ZM4 25H2V15h2v10Zm21.42 9.68c-.34 1.05-1.46 1.63-2.51 1.3l-10.48-3.34c-1.05-.33-1.63-1.46-1.3-2.51l.39-1.22 14.27 4.62-.37 1.15Zm8.58-.6L6 25.02V14.98l28-9.06v28.16ZM38 37c0 .55-.45 1-1 1s-1-.45-1-1V3c0-.55.45-1 1-1s1 .45 1 1v34Zm4-15c0 1.1-.9 2-2 2v-8c1.1 0 2 .9 2 2v4Z" style="fill:#fff"/></svg>